<?xml version="1.0" encoding="utf-8"?>
<!-- Generator: Adobe Illustrator 19.0.0, SVG Export Plug-In . SVG Version: 6.00 Build 0)  -->
<svg version="1.1" id="Layer_1" xmlns="http://www.w3.org/2000/svg" xmlns:xlink="http://www.w3.org/1999/xlink" x="0px" y="0px"
	 viewBox="131 -131 512 512" style="enable-background:new 131 -131 512 512;" xml:space="preserve">
<g id="XMLID_1_">
	<path id="XMLID_12_" d="M643,133.3L438.2,338.1L335.8,235.7l51.2-51.2l51.2,51.2L591.8,82.1L643,133.3z M291.7,259.3l27.6,27.6
		H164.9c-18.9,0-33.9-15-33.9-33.9V-54.2c0-18.9,15-33.9,33.9-33.9h238.7c18.9,0,33.9,15,33.9,33.9v222.1l-26.8-28.4
		c-13.4-13.4-35.4-13.4-48.8,0L291,211.2C278.3,224.6,278.3,246.7,291.7,259.3L291.7,259.3z M233.4-20.3h170.9v-33.9H233.4V-20.3z
		 M233.4,48.2h170.9V14.3H233.4V48.2z M233.4,115.9h102.4V82H233.4V115.9z M199.5,150.6h-33.8v33.9h33.9v-33.9H199.5z M199.5,82.1
		h-33.8V116h33.9V82.1H199.5z M199.5,13.5h-33.8v33.9h33.9V13.5H199.5z M199.5-54.2h-33.8v33.9h33.9v-33.9H199.5z"/>
</g>
</svg>
