<?xml version="1.0" encoding="utf-8"?>
<!-- Generator: Adobe Illustrator 21.0.0, SVG Export Plug-In . SVG Version: 6.00 Build 0)  -->
<svg version="1.1" id="Layer_1" xmlns="http://www.w3.org/2000/svg" xmlns:xlink="http://www.w3.org/1999/xlink" x="0px" y="0px"
	 viewBox="0 0 512 512" style="enable-background:new 0 0 512 512;" xml:space="preserve">
<g>
	<path d="M0,0v512h512V0H0z M46.5,46.5h418.9v418.9H46.5V46.5z M329.6,116.4c-29.9,0-40.1,21.3-40.1,35.7v38
		c0,19.3,10.5,37.8,37.7,37.8c45.7,0,40.1-34.6,40.1-58.6h-35.7v12.6h21c0,18.7-8.8,31.3-25.5,31.3c-13.2,0-20.8-11.4-20.8-27.2
		v-31.6c0-14.6,13.7-23.1,23.1-23.1c16.7,0,23.1,14.6,23.1,14.6l12.6-8.5C365.3,137.5,359.2,116.4,329.6,116.4z M199.8,188.3
		c-21.1,0-53.2,2-83.4,0.9v9.4c18.1,3.5,25.7,1.8,25.7,28.1v128.7c0,26.6-7.6,24.6-25.7,28.1v9.7c8.8-0.3,24-1.2,39.5-1.2
		c14.6,0,33.7,0.6,41.9,1.2v-9.7c-23.4-3.2-30.5-0.6-30.5-28.1V301c7.9,0.6,14.7,0.5,25.2,0.5c19.9,35.7,38.9,62.4,49.7,75
		c19.6,23.7,50.9,20.2,58.5,16.7v-8.8c-11.7,0-23.4-7.9-31.9-17.3c-14.3-15.5-33.6-40.7-49.5-69c26.3-6.4,46-31.3,46-55.9
		C265.3,205.3,236.9,188.3,199.8,188.3z M193.6,203.2c27.5,0,43.9,14.3,43.9,40.7c0,25.8-17.6,43-46.8,43c-10.8,0-15.8-0.3-23.4-0.9
		v-82C174.9,203.2,184.8,203.2,193.6,203.2z"/>
</g>
</svg>
